<?xml version="1.0" standalone="no"?>
<!DOCTYPE svg PUBLIC "-//W3C//DTD SVG 20010904//EN"
 "http://www.w3.org/TR/2001/REC-SVG-20010904/DTD/svg10.dtd">
<svg version="1.0" xmlns="http://www.w3.org/2000/svg"
 width="1408.000000pt" height="1408.000000pt" viewBox="0 0 1408.000000 1408.000000"
 preserveAspectRatio="xMidYMid meet">
<metadata>
Created by potrace 1.16, written by Peter Selinger 2001-2019
</metadata>
<g transform="translate(0.000000,1408.000000) scale(0.100000,-0.100000)"
fill="currentColor" stroke="none">
<path d="M3588 11383 c-12 -3 -18 -14 -18 -32 0 -25 6 -31 48 -46 83 -31 178
-93 227 -147 58 -64 89 -124 114 -220 45 -174 46 -194 46 -1168 0 -971 -3
-1040 -46 -1270 -43 -223 -149 -361 -331 -431 -53 -20 -58 -24 -58 -52 l0 -30
123 7 c67 4 178 11 247 16 69 5 168 10 221 10 60 0 99 4 107 12 9 9 12 390 12
1653 0 902 -4 1645 -8 1651 -4 7 -128 17 -325 28 -175 9 -324 19 -330 20 -7 2
-20 2 -29 -1z M5325 11379 c-71 -4 -260 -13 -420 -18 -159 -6 -318 -14 -352
-17 l-63 -7 0 -1653 0 -1653 21 -6 c11 -4 73 -5 137 -4 64 2 205 -5 312 -14
379 -34 727 -23 923 28 77 20 77 20 77 -18 0 -102 47 -349 91 -482 35 -104
147 -317 213 -405 88 -117 269 -300 297 -300 10 0 7 8 -57 135 -83 167 -120
264 -160 425 -22 87 -31 150 -63 426 -6 50 -11 156 -11 236 l0 146 68 51 c37
27 85 65 107 84 l41 35 0 -301 c1 -297 6 -367 43 -563 43 -227 136 -456 243
-599 166 -222 416 -390 683 -460 149 -39 245 -48 431 -42 244 8 456 57 772
179 l52 20 0 798 0 799 -52 5 c-86 9 -356 26 -453 28 l-90 3 0 -29 c0 -26 5
-31 57 -49 158 -57 243 -184 268 -402 13 -117 13 -529 0 -670 -16 -163 -34
-220 -89 -273 -109 -104 -307 -162 -549 -162 -549 1 -877 314 -991 945 -26
146 -33 226 -38 481 l-6 270 69 54 c148 116 305 284 389 415 115 181 201 420
220 616 4 36 10 71 14 76 7 13 116 47 221 70 58 13 127 17 300 17 203 0 234
-2 315 -23 371 -96 600 -299 705 -625 15 -46 27 -65 42 -69 29 -8 48 2 48 27
0 109 -21 726 -25 743 -4 17 -22 26 -87 47 -108 33 -257 70 -338 85 -36 7 -85
16 -110 21 -136 26 -265 35 -510 35 -263 0 -358 -8 -490 -41 -30 -8 -57 -14
-61 -14 -4 0 -12 39 -18 88 -50 376 -174 645 -416 900 -96 102 -276 249 -275
225 0 -5 19 -28 41 -53 141 -158 248 -402 302 -690 37 -197 47 -299 47 -463
l0 -145 -37 -23 c-41 -26 -156 -119 -161 -131 -2 -4 -8 -8 -13 -8 -5 0 -9 88
-9 208 0 479 -84 806 -284 1106 -68 103 -228 269 -326 338 -157 110 -354 193
-540 228 -59 11 -272 31 -305 28 -11 0 -78 -5 -150 -9z m211 -243 c132 -16
266 -46 347 -77 350 -135 578 -399 690 -796 25 -90 27 -101 51 -258 19 -120
30 -357 21 -443 l-7 -69 -57 -41 c-80 -59 -187 -163 -263 -257 -197 -243 -301
-492 -343 -818 -6 -47 -8 -50 -58 -72 -117 -53 -347 -95 -521 -95 -92 0 -299
20 -371 35 -137 29 -173 42 -179 64 -64 236 -86 599 -86 1441 0 736 20 1223
51 1282 15 27 114 66 224 87 169 32 323 38 501 17z m1104 -1698 c-1 -23 -28
-202 -39 -253 -42 -201 -100 -343 -201 -494 -60 -88 -86 -118 -96 -108 -13 13
46 269 97 419 39 113 113 274 162 351 21 32 37 61 37 65 0 10 22 32 32 32 4 0
8 -6 8 -12z m490 -183 c0 -51 -46 -260 -81 -367 -17 -51 -50 -135 -74 -185
-62 -131 -173 -288 -191 -270 -7 7 12 139 38 257 39 178 108 348 191 470 39
57 100 129 110 130 4 0 7 -16 7 -35z M9305 8229 c-49 -4 -150 -12 -224 -18
-91 -6 -137 -14 -142 -23 -5 -7 -9 -345 -9 -751 0 -668 2 -738 16 -744 9 -3
57 8 108 24 50 17 103 34 119 37 l27 6 0 444 c0 438 5 538 36 656 33 128 121
253 207 293 32 16 37 22 37 52 0 35 0 35 -42 34 -24 -1 -83 -5 -133 -10z
M2085 6710 c-10 -16 2 -27 58 -53 65 -30 114 -78 140 -137 43 -97 47 -155 47
-730 0 -731 -11 -810 -122 -917 -18 -17 -54 -41 -80 -52 -44 -19 -62 -44 -38
-53 12 -4 255 10 335 20 l60 7 3 946 c2 750 -1 949 -10 956 -17 14 -385 25
-393 13z M2828 6711 c-117 -4 -201 -10 -208 -17 -7 -7 -9 -304 -8 -955 l3
-944 100 -7 c500 -34 576 -32 780 29 39 12 151 75 201 114 91 70 178 188 229
308 111 262 123 663 30 936 -90 265 -278 443 -550 521 -60 18 -296 24 -577 15z
m515 -159 c333 -91 508 -374 507 -824 -1 -432 -170 -709 -488 -801 -149 -42
-504 -24 -537 27 -39 61 -55 302 -55 836 1 520 10 704 37 732 10 10 52 27 93
38 102 27 327 23 443 -8z M9330 6698 c0 -12 13 -21 43 -29 63 -16 152 -67 204
-115 l46 -43 -7 -188 c-3 -103 -11 -260 -16 -348 -5 -88 -14 -299 -20 -470
-14 -383 -30 -475 -99 -583 -28 -44 -96 -102 -119 -102 -5 0 -16 -8 -26 -19
-27 -29 -2 -41 64 -30 70 12 336 16 463 7 78 -6 97 -5 97 6 0 8 -15 19 -32 26
-18 7 -44 16 -58 21 -59 23 -111 89 -135 174 -15 51 -17 88 -12 265 7 244 36
862 45 975 l7 80 32 -65 c57 -118 163 -343 163 -346 0 -3 38 -83 161 -342 33
-68 59 -125 59 -127 0 -1 27 -61 61 -131 113 -240 181 -384 225 -481 14 -29
30 -53 37 -53 10 0 87 143 87 162 0 6 -41 95 -145 313 -31 66 -68 145 -82 175
-14 30 -45 98 -70 150 -25 52 -60 127 -78 165 -18 39 -65 137 -104 219 -39 82
-71 150 -71 152 0 2 -28 61 -61 131 -34 70 -76 160 -94 198 -94 204 -117 246
-138 254 -12 5 -113 10 -224 13 -189 4 -203 3 -203 -14z M11695 6708 c-93 -5
-173 -13 -177 -16 -4 -4 0 -140 8 -302 22 -459 42 -900 63 -1369 6 -118 14
-218 19 -223 5 -5 85 -13 178 -19 93 -6 180 -11 194 -12 16 -1 26 4 28 15 2
12 -8 20 -40 29 -108 32 -174 114 -206 259 -17 75 -31 251 -42 530 -6 146 -16
356 -22 468 -12 227 -7 346 16 411 34 93 121 174 209 195 20 5 27 12 25 24 -4
21 -29 22 -253 10z M9926 6691 c-3 -4 6 -33 20 -62 15 -30 39 -82 55 -116 15
-34 46 -99 67 -145 22 -45 53 -112 70 -148 55 -120 113 -244 147 -315 18 -38
47 -99 63 -135 16 -36 62 -132 101 -214 39 -82 71 -150 71 -152 0 -2 29 -64
65 -139 36 -75 65 -141 65 -146 0 -22 31 -6 44 24 7 17 28 62 45 100 68 146
115 249 168 367 94 207 276 605 299 655 l28 60 7 -56 c9 -66 37 -655 46 -954
6 -230 0 -283 -44 -373 -25 -51 -99 -122 -128 -122 -6 0 -19 -8 -29 -19 -28
-31 -2 -39 99 -30 50 5 133 12 185 16 l95 8 -3 190 c-1 105 -7 269 -12 365 -6
96 -17 346 -26 555 -9 209 -19 468 -24 577 -4 108 -11 201 -14 207 -4 6 -35
11 -70 11 -74 0 -79 -5 -121 -100 -16 -36 -46 -103 -67 -150 -22 -47 -45 -98
-53 -115 -7 -16 -36 -79 -64 -138 -28 -60 -51 -111 -51 -113 0 -2 -15 -37 -34
-77 -35 -72 -126 -271 -225 -489 -11 -26 -25 -49 -31 -53 -5 -3 -20 18 -33 47
-14 29 -48 103 -77 163 -29 61 -65 137 -80 170 -43 94 -93 200 -150 320 -29
61 -79 169 -112 240 -99 216 -121 259 -136 278 -12 13 -31 17 -83 17 -37 0
-70 -4 -73 -9z M3930 6481 c0 -5 6 -16 13 -23 50 -51 105 -156 142 -274 73
-230 73 -667 0 -890 -36 -111 -104 -228 -174 -301 -37 -38 -39 -46 -8 -30 76
40 209 170 278 272 44 65 103 205 120 285 19 90 17 366 -3 440 -53 186 -111
291 -233 415 -86 89 -135 127 -135 106z M4510 6084 c0 -8 10 -18 23 -23 83
-33 112 -48 138 -79 66 -74 79 -163 79 -542 0 -473 -18 -534 -177 -611 -105
-50 -88 -60 95 -52 86 3 168 9 182 13 l25 6 3 634 c2 498 -1 635 -10 641 -17
11 -87 17 -235 23 -102 3 -123 2 -123 -10z M5065 6091 c-22 -4 -46 -10 -52
-14 -10 -7 -13 -147 -13 -646 l0 -639 73 -6 c91 -7 289 -19 302 -17 6 0 10 8
10 17 0 11 -15 21 -42 29 -62 19 -110 52 -141 98 -54 82 -55 88 -60 445 -2
183 -1 344 2 356 8 34 68 60 118 52 22 -4 78 -25 126 -48 52 -24 107 -43 137
-45 44 -4 55 -1 99 29 27 18 56 44 65 57 15 23 15 23 -17 16 -36 -8 -66 0
-207 56 -55 21 -120 40 -145 42 -25 1 -45 7 -44 12 1 21 83 67 127 72 36 4 65
-2 150 -36 113 -44 158 -50 210 -27 45 21 72 46 112 107 41 62 44 85 13 95
-16 5 -27 0 -42 -17 -38 -44 -82 -69 -123 -69 -21 0 -83 19 -138 41 -55 22
-123 43 -152 46 -66 7 -96 -10 -199 -120 -42 -45 -80 -82 -83 -82 -2 0 -4 46
-2 103 3 115 9 108 -84 93z M6656 6084 c-177 -56 -311 -241 -356 -490 -17 -97
-8 -308 17 -399 58 -206 184 -356 350 -418 90 -33 292 -36 401 -7 176 48 322
180 410 372 32 70 30 88 -13 88 -32 0 -38 -6 -83 -73 -92 -135 -207 -217 -353
-252 -224 -52 -430 38 -522 228 -44 91 -59 169 -55 282 l3 90 410 5 410 5 3
34 c2 19 -1 53 -7 75 -5 23 -15 64 -22 91 -37 154 -139 285 -268 347 -60 29
-76 32 -171 35 -74 2 -119 -2 -154 -13z m212 -116 c116 -28 213 -147 216 -263
l1 -50 -305 0 c-344 0 -326 -5 -299 79 58 180 218 276 387 234z M8200 6084
c-105 -28 -217 -91 -286 -160 -35 -35 -64 -70 -64 -77 0 -14 31 -47 44 -47 5
0 29 19 56 43 45 40 113 79 190 108 55 22 276 19 318 -4 75 -41 104 -130 100
-306 l-3 -113 -120 -2 c-111 -2 -125 -5 -186 -33 -255 -118 -319 -427 -130
-626 104 -110 261 -133 384 -57 27 17 50 30 53 30 2 0 4 -16 4 -36 l0 -36 53
7 c28 3 60 9 69 11 17 5 18 36 20 432 4 543 -2 642 -39 718 -34 70 -96 125
-164 147 -64 21 -222 22 -299 1z m355 -913 l0 -235 -50 -25 c-113 -56 -251
-16 -305 90 -73 142 -17 314 126 384 42 22 61 24 139 22 l90 -2 0 -234z M8735
6009 c73 -81 70 -53 73 -659 2 -343 7 -549 13 -555 10 -10 315 -35 337 -27 29
10 9 32 -45 48 -79 23 -126 71 -142 142 -7 34 -11 179 -11 402 0 452 -13 547
-87 616 -32 30 -123 74 -154 74 -19 0 -17 -5 16 -41z M7250 5982 c0 -6 11 -24
25 -40 58 -69 99 -192 122 -367 l8 -60 74 -3 c41 -2 78 1 84 7 14 14 -19 143
-57 225 -39 84 -96 151 -170 200 -64 42 -86 52 -86 38z M6189 5842 c-129 -132
-163 -222 -164 -427 0 -123 3 -148 24 -205 13 -36 38 -88 56 -115 47 -75 172
-181 190 -163 3 3 -10 36 -29 74 -19 38 -46 113 -60 168 -22 85 -26 119 -26
251 0 191 23 313 80 425 43 84 16 81 -71 -8z M7910 5414 c-114 -65 -165 -151
-164 -279 0 -118 39 -189 149 -270 32 -24 115 -59 122 -51 2 2 -14 28 -36 57
-63 82 -83 146 -84 264 -2 112 12 161 70 257 13 21 23 40 23 43 0 13 -39 3
-80 -21z M3487 4393 c-4 -3 -7 -28 -7 -55 l0 -48 3583 0 c2773 0 3586 3 3595
12 16 16 16 70 0 86 -9 9 -820 12 -3588 12 -1967 0 -3580 -3 -3583 -7z M6292
3886 c-136 -44 -231 -137 -282 -274 -68 -180 -66 -461 3 -627 71 -171 186
-263 354 -284 239 -29 420 81 500 303 58 162 56 444 -5 602 -25 68 -85 157
-131 195 -20 16 -65 44 -101 61 -59 29 -75 32 -180 35 -79 2 -128 -2 -158 -11z
m266 -97 c154 -46 242 -225 242 -488 0 -223 -52 -368 -158 -445 -62 -46 -119
-61 -217 -60 -110 2 -180 29 -238 94 -78 86 -107 176 -114 353 -10 216 32 383
118 473 34 35 107 74 159 85 45 10 157 4 208 -12z M5040 3874 c-173 -33 -303
-161 -356 -349 -25 -91 -31 -361 -10 -456 50 -217 188 -343 401 -365 89 -9
288 31 332 67 10 9 13 68 13 280 l0 268 -42 5 c-94 11 -158 14 -162 7 -7 -11
6 -24 38 -41 17 -8 39 -31 50 -50 19 -31 21 -51 21 -191 -1 -179 -7 -198 -80
-230 -135 -60 -320 -15 -394 95 -70 107 -86 175 -86 376 0 191 14 254 76 350
68 105 176 155 334 154 73 0 102 -5 152 -26 95 -39 154 -97 184 -180 7 -21 19
-38 26 -38 10 0 13 28 13 118 0 153 -1 155 -58 170 -26 7 -63 18 -82 23 -37
11 -328 21 -370 13z M7225 3870 c-4 -6 -5 -12 -4 -14 2 -1 20 -13 39 -27 93
-63 95 -77 95 -524 0 -281 -3 -383 -14 -424 -14 -57 -59 -117 -98 -132 -13 -5
-23 -15 -23 -23 0 -12 18 -13 103 -9 56 3 108 9 115 12 18 10 18 1121 0 1133
-7 4 -47 8 -88 8 -41 0 -85 3 -96 6 -12 3 -25 1 -29 -6z M7641 3873 c-52 -2
-101 -9 -108 -15 -20 -16 -19 -1124 1 -1131 8 -3 165 -7 348 -8 l333 -2 8 24
c4 13 23 71 42 129 23 73 31 108 24 115 -7 7 -19 -1 -37 -25 -66 -87 -120
-123 -213 -140 -63 -12 -359 -13 -377 -1 -26 16 -33 92 -39 436 -8 469 2 523
105 577 40 22 51 42 21 44 -8 0 -57 -2 -108 -3z M8383 3867 c-4 -6 2 -16 11
-21 59 -35 82 -55 100 -86 20 -34 21 -49 21 -450 0 -374 -2 -420 -18 -461 -19
-51 -48 -82 -89 -98 -16 -6 -28 -17 -28 -26 0 -13 14 -15 98 -10 53 4 107 8
120 11 l22 4 0 566 c0 443 -3 565 -12 569 -32 10 -219 11 -225 2z M8860 3871
l-165 -6 0 -570 0 -570 180 -9 c209 -11 284 -2 382 45 174 83 273 279 273 541
0 274 -118 471 -328 547 -64 24 -140 29 -342 22z m230 -91 c168 -32 269 -132
317 -313 23 -85 22 -279 -1 -367 -60 -225 -249 -339 -496 -299 l-85 14 -14 40
c-16 46 -28 640 -16 800 6 83 10 97 28 107 50 27 176 35 267 18z M4645 3708
c-57 -51 -103 -122 -136 -203 -21 -54 -23 -75 -23 -210 1 -161 9 -199 68 -299
33 -56 112 -143 121 -134 5 4 -6 38 -22 75 -49 111 -57 160 -57 363 1 173 2
190 27 263 15 43 39 101 53 128 15 27 25 52 21 55 -3 3 -27 -14 -52 -38z
M5918 3696 c-100 -101 -139 -213 -139 -396 0 -178 34 -279 129 -381 30 -33 60
-59 68 -59 18 0 18 5 0 33 -23 36 -65 171 -77 249 -27 170 3 408 66 543 14 29
25 55 25 58 0 18 -24 2 -72 -47z M6880 3736 c0 -2 11 -23 24 -47 14 -24 35
-80 47 -124 20 -69 23 -103 23 -255 0 -192 -19 -301 -70 -402 -14 -28 -23 -53
-19 -56 11 -11 115 103 144 159 85 166 85 430 1 583 -30 54 -116 146 -137 146
-7 0 -13 -2 -13 -4z M9500 3698 c31 -48 59 -111 77 -176 21 -77 24 -364 4
-442 -19 -75 -63 -169 -96 -203 -41 -42 -25 -53 23 -15 81 65 142 151 179 255
21 60 25 268 5 328 -29 88 -76 168 -133 226 -65 65 -93 78 -59 27z M5583 3330
c-39 -4 -76 -11 -82 -14 -17 -11 -15 -490 2 -503 8 -7 24 -6 47 2 l35 12 5
184 c6 200 14 237 64 276 27 22 36 54 14 52 -7 -1 -45 -5 -85 -9z"/>
</g>
</svg>
